<?xml version="1.0" standalone="no"?>
<!DOCTYPE svg PUBLIC "-//W3C//DTD SVG 20010904//EN"
 "http://www.w3.org/TR/2001/REC-SVG-20010904/DTD/svg10.dtd">
<svg version="1.0" xmlns="http://www.w3.org/2000/svg"
 width="48.000000pt" height="48.000000pt" viewBox="0 0 48.000000 48.000000"
 preserveAspectRatio="xMidYMid meet">
<metadata>
Created by potrace 1.10, written by Peter Selinger 2001-2011
</metadata>
<g transform="translate(0.000000,48.000000) scale(0.100000,-0.100000)"
fill="#000000" stroke="none">
<path d="M195 415 c-27 -26 -33 -76 -12 -93 9 -8 11 -1 9 32 -3 37 -1 43 23
54 42 19 70 15 83 -13 18 -38 15 -72 -8 -95 -21 -21 -64 -27 -74 -11 -4 5 -19
-4 -35 -19 -21 -22 -27 -36 -23 -55 3 -16 -2 -33 -13 -45 -17 -19 -17 -20 3
-20 17 0 21 -7 24 -38 l3 -37 115 0 115 0 3 47 c2 29 8 48 18 52 7 3 14 1 14
-4 0 -6 9 -10 20 -10 17 0 20 7 20 40 0 33 -3 40 -20 40 -15 0 -20 -7 -20 -25
0 -42 -28 -31 -32 13 -3 37 -3 37 -50 40 -43 3 -48 6 -48 27 0 13 5 27 10 30
6 3 10 20 10 36 0 40 -39 79 -80 79 -19 0 -40 -9 -55 -25z m145 -155 c53 -7
53 -7 15 -10 -22 -1 -31 -4 -20 -7 72 -15 67 -9 63 -71 -1 -31 -8 -63 -15 -69
-17 -19 -170 -17 -189 1 -18 19 -19 122 -1 130 9 5 9 7 -2 12 -11 5 -11 8 0
15 16 10 72 10 149 -1z"/>
<path d="M238 143 c18 -2 45 -2 60 0 15 2 0 4 -33 4 -33 0 -45 -2 -27 -4z"/>
<path d="M238 123 c18 -2 45 -2 60 0 15 2 0 4 -33 4 -33 0 -45 -2 -27 -4z"/>
<path d="M238 103 c18 -2 45 -2 60 0 15 2 0 4 -33 4 -33 0 -45 -2 -27 -4z"/>
<path d="M214 329 c-10 -17 13 -36 27 -22 12 12 4 33 -11 33 -5 0 -12 -5 -16
-11z"/>
<path d="M30 270 c-11 -11 -20 -26 -20 -32 0 -9 3 -10 8 -2 19 29 102 48 102
23 0 -6 -9 -8 -20 -4 -12 4 -20 2 -20 -5 0 -19 29 -22 47 -5 16 17 16 18 -2
31 -27 20 -72 17 -95 -6z"/>
<path d="M104 199 c-10 -17 13 -36 27 -22 12 12 4 33 -11 33 -5 0 -12 -5 -16
-11z"/>
<path d="M10 183 c-1 -37 65 -66 100 -43 11 7 5 10 -23 10 -28 0 -44 6 -58 23
-10 12 -18 16 -19 10z"/>
</g>
</svg>
