<?xml version="1.0" encoding="UTF-8"?>
<svg version="1.1" xmlns="http://www.w3.org/2000/svg" width="48" height="48">
<path d="M0 0 C1.90625 0.375 1.90625 0.375 4.40625 1.875 C6.51983698 5.39764496 6.48176527 8.3628364 5.90625 12.375 C4.90625 14.875 4.90625 14.875 3.90625 16.375 C4.23625 16.705 4.56625 17.035 4.90625 17.375 C4.94688832 19.04117115 4.948971 20.70888095 4.90625 22.375 C7.53526288 20.85293991 9.74990964 19.53134036 11.90625 17.375 C13.22625 17.375 14.54625 17.375 15.90625 17.375 C15.90625 23.315 15.90625 29.255 15.90625 35.375 C10.60012755 34.31377551 10.60012755 34.31377551 7.90625 31.375 C6.91625 31.045 5.92625 30.715 4.90625 30.375 C4.926875 31.179375 4.9475 31.98375 4.96875 32.8125 C4.90625 35.375 4.90625 35.375 3.90625 36.375 C2.13765807 36.47446453 0.36513549 36.50580217 -1.40625 36.5078125 C-2.48132813 36.50910156 -3.55640625 36.51039062 -4.6640625 36.51171875 C-5.79585937 36.50785156 -6.92765625 36.50398438 -8.09375 36.5 C-9.22554687 36.50386719 -10.35734375 36.50773437 -11.5234375 36.51171875 C-12.59851563 36.51042969 -13.67359375 36.50914063 -14.78125 36.5078125 C-15.77511719 36.50668457 -16.76898438 36.50555664 -17.79296875 36.50439453 C-20.09375 36.375 -20.09375 36.375 -21.09375 35.375 C-21.16836769 33.89756971 -21.17701834 32.41666758 -21.15625 30.9375 C-21.14851563 30.04289062 -21.14078125 29.14828125 -21.1328125 28.2265625 C-21.10677083 26.32552083 -21.08072917 24.42447917 -21.0546875 22.5234375 C-21.04695313 21.62882812 -21.03921875 20.73421875 -21.03125 19.8125 C-21.01384766 18.57306641 -21.01384766 18.57306641 -20.99609375 17.30859375 C-20.87747235 15.36776443 -20.87747235 15.36776443 -22.09375 14.375 C-22.36689815 8.63888889 -22.36689815 8.63888889 -22.09375 6.375 C-20.09375 4.375 -20.09375 4.375 -18.21875 4.1796875 C-17.5175 4.20289063 -16.81625 4.22609375 -16.09375 4.25 C-15.041875 4.27707031 -15.041875 4.27707031 -13.96875 4.3046875 C-13.35 4.32789063 -12.73125 4.35109375 -12.09375 4.375 C-11.43375 4.375 -10.77375 4.375 -10.09375 4.375 C-9.5575 3.715 -9.02125 3.055 -8.46875 2.375 C-5.50208938 -0.12324052 -3.7811883 -0.22574259 0 0 Z M-10.09375 12.375 C-10.75375 13.695 -11.41375 15.015 -12.09375 16.375 C-10.11375 16.375 -8.13375 16.375 -6.09375 16.375 C-7.41375 15.055 -8.73375 13.735 -10.09375 12.375 Z " fill="#93D72C" transform="translate(26.09375,6.625)"/>
<path d="M0 0 C1.90625 0.375 1.90625 0.375 4.40625 1.875 C6.52778384 5.41088973 6.697263 8.35401723 5.90625 12.375 C4.40625 14.875 4.40625 14.875 1.90625 16.375 C-2.44450499 17.07040756 -6.34519392 16.87403739 -10.09375 14.375 C-10.75375 15.035 -11.41375 15.695 -12.09375 16.375 C-13.96875 16.640625 -13.96875 16.640625 -16.09375 16.625 C-17.145625 16.63273437 -17.145625 16.63273437 -18.21875 16.640625 C-20.09375 16.375 -20.09375 16.375 -22.09375 14.375 C-22.359375 12.5 -22.359375 12.5 -22.34375 10.375 C-22.34890625 9.67375 -22.3540625 8.9725 -22.359375 8.25 C-22.09375 6.375 -22.09375 6.375 -20.09375 4.375 C-18.21875 4.1796875 -18.21875 4.1796875 -16.09375 4.25 C-15.041875 4.27707031 -15.041875 4.27707031 -13.96875 4.3046875 C-13.35 4.32789063 -12.73125 4.35109375 -12.09375 4.375 C-11.43375 4.375 -10.77375 4.375 -10.09375 4.375 C-9.5575 3.715 -9.02125 3.055 -8.46875 2.375 C-5.50208938 -0.12324052 -3.7811883 -0.22574259 0 0 Z " fill="#6A7986" transform="translate(26.09375,6.625)"/>
<path d="M0 0 C1.32 0 2.64 0 4 0 C4 5.94 4 11.88 4 18 C-1.30612245 16.93877551 -1.30612245 16.93877551 -4 14 C-4.99 13.67 -5.98 13.34 -7 13 C-7.43753295 7.66209805 -7.43753295 7.66209805 -7 5 C-4.625 3.125 -4.625 3.125 -2 2 C-1.34 1.34 -0.68 0.68 0 0 Z " fill="#93D72D" transform="translate(38,24)"/>
<path d="M0 0 C0.99 0 1.98 0 3 0 C3 2.64 3 5.28 3 8 C2.01 8 1.02 8 0 8 C0 5.36 0 2.72 0 0 Z " fill="#607D8B" transform="translate(31,29)"/>
</svg>
